<?xml version="1.0" encoding="UTF-8" standalone="no"?>
<!DOCTYPE svg PUBLIC "-//W3C//DTD SVG 1.1//EN" "http://www.w3.org/Graphics/SVG/1.1/DTD/svg11.dtd">
<svg version="1.1" xmlns="http://www.w3.org/2000/svg" viewBox="0 0 640 640" width="16" height="16">
    <circle cx="320" cy="320" r="288" fill="#3fb34f"/>
    <path d="M285.93 100.57C222.71 113.94 188.84 157 188.58 224.33C188.32 289.35 215.55 316.68 308.91 345.14C385.65 368.53 402.35 380.44 402.35 411.73C402.35 474.02 299.16 488.33 239.19 434.35C204.08 402.76 157.97 447.66 186.16 485.99C236.77 554.81 407.36 552.05 452.83 481.67C509.46 394.01 470 318.8 347.8 281.49C268.02 257.12 248.45 237.87 262.8 197.85C275.54 162.37 379.89 162.36 407.42 197.84C421.13 215.51 457.68 188.85 457.68 161.19C457.68 119.58 359.65 84.98 285.93 100.57"
          fill="#ffffff"/>
</svg>