<svg xmlns="http://www.w3.org/2000/svg" width="16px" height="16px" viewBox="0 0 2048 2048">
	<circle fill-opacity="0.6" r="896" cx="1024" cy="1024" fill="#44b651"></circle>
	<path fill-opacity="0.7" transform="translate(430.56, 1351.2) scale(0.48, -0.48)" fill="#171516" d="M1145 961l-850 -320l850 -317v-183l-1057 418v166l1057 418v-182z"></path><path fill-opacity="0.7" transform="translate(1022.4000000000001, 1351.2) scale(0.48, -0.48)" fill="#171516" d="M696 319q0 -78 52.5 -131t130.5 -53q77 0 130.5 53.5t53.5 130.5t-54 131t-130 54q-78 0 -130.5 -53t-52.5 -132zM561 319q0 135 92 227.5t226 92.5q64 0 121.5 -24t103.5 -70q46 -47 71 -105t25 -121q0 -133 -93 -226t-228 -93q-136 0 -227 91.5t-91 227.5zM83 440 l-44 113l1115 446l50 -113zM168 1112q0 -79 52.5 -131.5t131.5 -52.5q77 0 131 53.5t54 130.5t-54 130.5t-131 53.5t-130.5 -53t-53.5 -131zM33 1112q0 135 92 227.5t227 92.5q64 0 122.5 -24t103.5 -69t69.5 -103.5t24.5 -123.5q0 -134 -93 -226.5t-227 -92.5 q-135 0 -227 92t-92 227z"></path>
</svg>